<svg id="Layer_1" data-name="Layer 1" xmlns="http://www.w3.org/2000/svg" viewBox="0 0 30.73 23.3"><defs><style>.cls-1{fill:#fff;}</style></defs><path class="cls-1" d="M26,6.2a27.22,27.22,0,0,0-6.3-2,11.94,11.94,0,0,0-.8,1.6,27.33,27.33,0,0,0-7,0c-.3-.5-.6-1.1-.9-1.6a23.15,23.15,0,0,0-6.3,2A25.85,25.85,0,0,0,.11,23.6a27.1,27.1,0,0,0,7.8,3.9,17.77,17.77,0,0,0,1.7-2.7A12.64,12.64,0,0,1,7,23.5c.2-.2.4-.3.6-.5a18.27,18.27,0,0,0,15.5,0c.2.2.4.3.6.5a21,21,0,0,1-2.6,1.3,20.07,20.07,0,0,0,1.7,2.7,28.42,28.42,0,0,0,7.8-3.9A25.5,25.5,0,0,0,26,6.2ZM10.31,20a3,3,0,0,1-2.8-3.1,2.93,2.93,0,0,1,2.8-3.1,3,3,0,0,1,2.8,3.1A3,3,0,0,1,10.31,20Zm10.1,0a3,3,0,0,1-2.8-3.1,2.93,2.93,0,0,1,2.8-3.1,3,3,0,0,1,2.8,3.1A2.87,2.87,0,0,1,20.41,20Z" transform="translate(0 -4.2)"/></svg>