<svg xmlns="http://www.w3.org/2000/svg" xmlns:xlink="http://www.w3.org/1999/xlink" viewBox="0 0 727.44 743.49"><defs><style>.cls-1{fill:none;}.cls-2{clip-path:url(#clip-path);}.cls-3{fill:#e42127;}.cls-4{fill:#f5eb26;}.cls-5{fill:#fff;}</style><clipPath id="clip-path" transform="translate(-7.58 16.26)"><path class="cls-1" d="M680.63,518.05c.08,9.2-3.26,14.31-10.8,18.32q-42.6,22.62-85,45.62-80.54,43.77-161,87.74c-20.8,11.3-41.6,22.65-62.78,33.2-3.92,2-10.6,1.93-14.45-.11-50.22-26.69-100.14-54-150.2-81-30.79-16.6-61.74-32.92-92.55-49.5-24-12.88-48-25.61-71.5-39.31-4.18-2.44-7.59-9.11-8.14-14.18-.95-8.6,1.13-17.49,1.14-26.25q.16-147,0-294.06c0-5.85-1.52-11.72-1.4-17.56.05-2.54,1.82-6.24,3.92-7.37,47-25.28,94.17-50.1,141.14-75.37q47.72-25.68,95.33-51.56A82.75,82.75,0,0,0,277,52c19.49,6.37,43.79,7.4,69.51,4.88q5.48-.54,11-1.28A406.22,406.22,0,0,0,414.6,43.42q7.48-2.14,14.77-4.5C457.15,54,485,69,512.77,84.15c53.06,28.88,106,58,159.17,86.63,6.79,3.66,8.59,7.9,8.56,15-.22,55.56-.12,111.11-.12,166.67C680.38,407.65,680.13,462.85,680.63,518.05Z"/></clipPath></defs><g id="Layer_4" data-name="Layer 4"><g class="cls-2"><rect class="cls-3" x="8.2" width="688.34" height="743.49"/></g><path d="M680.38,352.45c0-55.56-.1-111.11.12-166.67,0-7.1-1.77-11.34-8.56-15C618.73,142.19,565.83,113,512.77,84.15,485,69,457.15,54,429.37,38.92q-7.28,2.36-14.77,4.5L638.77,165c-.28.71-.57,1.42-.86,2.13L357.55,112.69V55.57q-5.55.74-11,1.28c0,17.23,0,34,.09,50.71,0,5.74-2.23,7.57-7.94,8.62-32.44,5.94-64.78,12.46-97.14,18.83-34.75,6.83-69.46,13.85-104.24,20.55-24.49,4.72-49.06,9-74.31,11.8L277,52a82.75,82.75,0,0,1-12.67-5.28Q216.76,72.61,169,98.25c-47,25.27-94.18,50.09-141.14,75.37C25.78,174.75,24,178.45,24,181c-.12,5.84,1.4,11.71,1.4,17.56q.15,147,0,294.06c0,8.76-2.09,17.65-1.14,26.25.55,5.07,4,11.74,8.14,14.18,23.49,13.7,47.55,26.43,71.5,39.31,30.81,16.58,61.76,32.9,92.55,49.5,50.06,27,100,54.28,150.2,81,3.85,2,10.53,2.06,14.45.11,21.18-10.55,42-21.9,62.78-33.2q80.53-43.79,161-87.74,42.38-23,85-45.62c7.54-4,10.88-9.12,10.8-18.32C680.13,462.85,680.38,407.65,680.38,352.45ZM666.13,183.57c-36,92.39-71.07,182.13-107,274.21L360.18,124ZM349.72,127.3c67.66,113.57,135,226.62,203,340.71H144.86ZM49,183.66Q133.21,166.74,217.46,150c36.76-7.27,73.59-14.23,110.41-21.24,2-.39,4.21-.05,8.74-.05L136.69,460.54c-10.51-29-20.37-56.28-30.3-83.54Q73.78,287.57,41.07,198.18C36.77,186.47,36.6,186.15,49,183.66ZM36.76,220.42l1.29-.5c30.33,83.49,60.65,167,91.43,251.72L36.76,511.31Zm283,456-284-153,97.55-42L321,674.76ZM348,687.58,146.36,479.79H543.29c-3.94,5.1-7.24,10.3-11.42,14.65-24,24.92-48.25,49.54-72.23,74.45q-45.45,47.21-90.57,94.74C361.87,671.22,355.21,679.33,348,687.58Zm15.29,2.26-1-1.55c5.29-6.33,10.23-13,15.94-18.92,24.2-25.17,48.74-50,72.95-75.17q45.07-46.82,89.79-94c6.25-6.58,11.89-13.74,18.34-21.24l104.85,47.67ZM668.84,516.9l-103-46.8q51-130.85,101.57-260.55l1.46.22Z" transform="translate(-7.58 16.26)"/><path d="M392.59,309c25.47.06,43.49,19.73,43.3,47.27-.19,27-18.92,46.42-44.54,46.26-25.45-.16-43.22-19.78-43.08-47.53S366.17,308.94,392.59,309Zm33.09,47.77c-4.27-10.64-6.54-20.95-12.05-29-11.11-16.33-30.48-16.1-43.07-.82-13.47,16.32-12.58,44.24,1.88,59.63C383.92,398.75,402,399,412,385.39,418,377.23,421,366.85,425.68,356.77Z" transform="translate(-7.58 16.26)"/><path d="M268.79,341.8c-6.84-6.14-11.52-10.34-16.44-14.74,5.17-3.49,9.55-6.09,13.53-9.2,12.83-10,27.4-10.87,42.29-7.37,10.17,2.39,17.8,8.66,19.55,19.87,1.8,11.56-1.8,21.07-11.91,27.34-8.7,5.4-17.84,10.09-26.61,15.39-7.81,4.73-15.25,10-17.87,21.17,20.23-2.13,39.89,3.38,59.93-4.45v13.56a210,210,0,0,0-77.71.23c-2-10,3-18.41,9.75-24.86,7.27-7,16.31-12.13,24.78-17.79,6.14-4.11,13.9-6.61,18.54-11.92,4.13-4.73,8-13.22,6.46-18.43-1.72-5.83-8.89-11.85-15.05-14.18C285.83,311.8,269.93,324.39,268.79,341.8Z" transform="translate(-7.58 16.26)"/><path class="cls-1" d="M209.22,220.65l-13.13-12a11.07,11.07,0,0,1-2.53-3.49l0,16.75Z" transform="translate(-7.58 16.26)"/><polygon class="cls-1" points="271.89 178.67 271.5 228.97 280.33 228.91 281.79 227.06 281.79 174.57 273.86 176.15 271.89 178.67"/><polygon class="cls-4" points="95.8 157.9 104.22 164.08 115.92 149.2 106.19 142.84 95.8 157.9"/><polygon class="cls-4" points="28.36 287.42 32.82 275.95 34.89 187.07 42.04 160.77 14.84 168.98 11 215.98 11 247.92 16.73 233.98 15.62 287.42 28.36 287.42"/><polygon class="cls-4" points="195.94 216.78 209.16 228.88 225.49 226.65 225.65 194.79 196.26 198.3 195.94 216.78"/><path class="cls-4" d="M123.48,265.58,88.67,237.07l13.86-.56-1-18.16-14.9,1.84.8-4.7,8.44-.56L98,199l-8.76.8.32-4.07,12.74-1.35,3.27-18.8-7.09,1.12.08-4.38,22.54-5.18V146.67l-19.36,6,.56-22.07-18.56,5.18v16.65l-2.86,6L78.56,155V137.51l-17.29,7v19.14l-15.21,4.54v17l8.45-2.71v5.1l-8.45,2v14.18l21.11-3.35v4l-18.65,3.41v13l16.92-1.19V224l-22.8,1.91v16.57l25.56-2L42.64,269.73h21.5L76.89,253.4l16.8,14.81ZM83.06,180.36l-6,1.91-3.66-4.46,11.87-2.31Z" transform="translate(-7.58 16.26)"/><path class="cls-4" d="M327.53,202.5,311.6,188.41V159.65l21.67-4.93V132.5l-22-12.19-62.52,13.54-11.15,18.32v90.4l17.12,17,61.33-2.95,17.36-22.93-.08-31.15Zm-64.27-52.08,7.08-8.61,21.51-4.06,8.52,6.85v70l-7.09,9-22.86.16-7.72-6.53Z" transform="translate(-7.58 16.26)"/><polygon class="cls-4" points="40.94 174.49 47.15 179.9 52.91 170.64 45.4 165.83 40.94 174.49"/><polygon class="cls-4" points="156.67 280.17 220.07 276.11 214.97 246.88 164.96 250.87 164.88 198.7 203.66 191.37 215.53 157.92 191.96 164.21 185.42 177.67 163.76 181.81 163.76 160.63 141.06 166.92 141.06 263.77 156.67 280.17"/><path class="cls-4" d="M125.87,204.18l-5.66-7.41-5,21.66s-2.86-3.42-2.86-13.78,6.77-18.07,12.42-18.07,11,7.08,11,17.6-.47,11.39-.47,11.39l-9.56,6-2.15,13.62h15.53s5.49-13.62,5.49-28.51-8.44-27.76-8.44-27.76l7.33-8.08L119,173.67s-15.77,9.32-15.77,31.7,9.63,28.51,17.28,30Z" transform="translate(-7.58 16.26)"/><polygon class="cls-4" points="309.91 179.9 309.91 200.85 323.05 213.67 340.97 210.64 340.97 172.97 309.91 179.9"/><polygon class="cls-4" points="600.22 214.68 607.57 215.85 607.57 192.95 600.22 190.5 600.22 214.68"/><polygon class="cls-4" points="662.24 207.44 662.24 215.5 694.72 223.09 701.14 229.4 701.14 262.46 716.45 264.79 716.45 228.7 706.75 218.77 662.24 207.44"/><polygon class="cls-4" points="656.64 206.5 626.73 197.04 612.25 203 612.25 210.24 626.15 215.96 636.31 208.49 656.64 213.51 656.64 206.5"/><polygon class="cls-4" points="588.88 211.99 596.59 213.74 596.59 190.5 588.88 186.99 588.88 211.99"/><polygon class="cls-4" points="395.67 274.02 407 255.68 407 166.9 379.67 160.59 379.44 233.49 375.35 239.68 343.46 237.34 343.46 271.1 395.67 274.02"/><polygon class="cls-4" points="588.88 270.4 588.3 243.06 599.63 245.52 609.56 221.34 588.53 217.01 582.58 226.48 530.83 217.13 530.83 235.24 565.64 240.03 565.64 253.11 560.26 257.78 544.14 257.78 537.49 280.56 573.58 283.13 588.88 270.4"/><polygon class="cls-4" points="614.35 239.79 651.38 245.87 658.74 233.13 641.22 228.81 637.13 231.85 614.35 226.36 614.35 239.79"/><polygon class="cls-4" points="411.33 151.72 420.79 161.06 418.92 221.92 447.07 226.59 447.07 160.94 431.19 145.41 343.57 122.51 343.57 134.78 411.33 151.72"/><polygon class="cls-4" points="539.94 172.74 539.94 193.77 547.3 206.15 578.72 212.11 578.72 183.49 539.94 172.74"/><polygon class="cls-4" points="697.52 280.1 697.52 231.85 683.15 226.13 683.15 267.25 679.3 269.93 664.11 269.7 664.11 288.62 690.98 290.37 697.52 280.1"/><polygon class="cls-4" points="660.49 276.12 660.49 263.97 642.74 262.11 638.76 266.89 609.33 263.86 609.33 285.82 649.51 288.62 660.49 276.12"/><path class="cls-4" d="M535.84,174.7l-10.51-13.2-24.88-6.07v-11l-23.95-6.54v12.5l-18.69-4.33v12.15l18.81,4.09v59.11l-8.41,10.86L434.33,230l-5.61,27.45,50,4.09,22-26.52v-67s9.11,2.45,9.7,6.19l-2,90.06,27.45.12Z" transform="translate(-7.58 16.26)"/><polygon points="69.46 198.54 75.47 196.63 77.66 191.77 65.8 194.08 69.46 198.54"/><path d="M293.28,223.61l7.09-9v-70l-8.52-6.85-21.51,4.06-7.08,8.61-.56,66.82,7.72,6.53Zm-3.91-12.81-1.45,1.85-8.84.06.4-50.31,2-2.52,7.92-1.58Z" transform="translate(-7.58 16.26)"/><path d="M731.9,204.75l-9.7-9.93a11,11,0,0,0-5.15-3l-44.51-11.33a11.43,11.43,0,0,0-2.71-.34c-.36,0-.71,0-1.06.05a13,13,0,0,0-1.23-.47l-29.91-9.46a11.06,11.06,0,0,0-7.5.31l-4.77,2a11,11,0,0,0-6.72-6.32l-7.36-2.45a11,11,0,0,0-3.48-.56,10.49,10.49,0,0,0-1.12,0L601,160.72a11,11,0,0,0-4.55-1,10.56,10.56,0,0,0-2,.18,11,11,0,0,0-5.28-3.28l-38.78-10.75a11,11,0,0,0-13.87,9.5,9.87,9.87,0,0,0-1.51.71l-1.15-1.44a10.92,10.92,0,0,0-6-3.83l-16.49-4v-2.34a11,11,0,0,0-8.1-10.61l-24-6.55a11,11,0,0,0-13.82,9.3L461,135.54l-14.58-14.26a11.05,11.05,0,0,0-4.91-2.78L353.94,95.61a11,11,0,0,0-13.78,10.64v12.27a11,11,0,0,0,3.51,8v.31a10.79,10.79,0,0,0,8,10.42l24.6,6.6c0,.13,0,.26,0,.4L376,211.88l-19.14-1.4a11.27,11.27,0,0,0,3.38-8.1V164.71a11.61,11.61,0,0,0-.72-4v-4a11,11,0,0,0-11-11,10.89,10.89,0,0,0-2.4.26l-.36.08V140.5a11.41,11.41,0,0,0-1.53-5.73V132.5a11,11,0,0,0-5.67-9.63l-22-12.18a11,11,0,0,0-5.34-1.38,10.86,10.86,0,0,0-2.33.25L246.43,123.1a11,11,0,0,0-7.07,5l-5.92,9.73A11,11,0,0,0,220.28,131l-23.58,6.29a11,11,0,0,0-7.06,5.82l-.54,1.13a9.06,9.06,0,0,0-.73-.66,10,10,0,0,0-6.31-2.25h-.15a11,11,0,0,0-10.57-8,10.84,10.84,0,0,0-2.93.4l-21.31,5.91c0-.17,0-.34-.06-.51a11,11,0,0,0-4.58-7.43l-9.21-6.36a10.1,10.1,0,0,0-3.64-1.58l-.09-.06-9.73-6.36A11,11,0,0,0,105,119.92a10.75,10.75,0,0,0-2.56-.33h-.53a10.61,10.61,0,0,0-2.83.47l-18.31,5.11a10.79,10.79,0,0,0-3,1.37,11,11,0,0,0-3.3.78l-17.28,7a11.29,11.29,0,0,0-1.7.86,10.81,10.81,0,0,0-5.52-1.66h-.3l-.6,0a10.58,10.58,0,0,0-2.83.53l-27,8.14a11,11,0,0,0-7.78,9.63l-3.84,47c0,.3,0,.6,0,.9v31.93A11,11,0,0,0,12.83,241l-.62,29.9a11,11,0,0,0,3.13,7.93A11.81,11.81,0,0,0,16.61,280h0l.07,0a10.53,10.53,0,0,0,2.5,1.38l.05,0,18,7.63a10.52,10.52,0,0,0,1.51.64h0a10.06,10.06,0,0,0,3,.48H53.86a10,10,0,0,0,5.24-1.5,9.81,9.81,0,0,0,1.09.07H80.55a10.23,10.23,0,0,0,8.21-4.24l3.94-5.32c.33,0,.66,0,1,0s.64,0,1,0l1.19-.11,5.8,5.4a10.09,10.09,0,0,0,6.88,2.75c.31,0,.61,0,.92,0l28.2-2.63a10.56,10.56,0,0,0,9-7.71,11.4,11.4,0,0,0-3.35-11.76l-13-11.27c.53.15,1.07.27,1.62.39a9.8,9.8,0,0,0,4.26-.05l.62,0h3.09a11.3,11.3,0,0,0,.78.93l15.61,16.4a10.8,10.8,0,0,0,1.84,1.55h0l11.25,7.87.17.12.36.25v0a10,10,0,0,0,5.46,1.65l.67,0,60-4.06a10.29,10.29,0,0,0,7.52-4.17,11.44,11.44,0,0,0,2.2-7.56l7.91,8.31a10.15,10.15,0,0,0,7.34,3.2h.5l58.08-3a10.27,10.27,0,0,0,7.8-4.35L339.12,255l4.77,13a10.29,10.29,0,0,0,.84,2.31v0h0a10.81,10.81,0,0,0,9,5.87l49.45,3,.65,0a10.8,10.8,0,0,0,9.35-5.41l4.06-7A10.78,10.78,0,0,0,427,278.72l47.36,4.15c.31,0,.63,0,.94,0a10.8,10.8,0,0,0,8.54-4.19l8.93-11.57-.16,7.48a10.77,10.77,0,0,0,10.74,11l26,.12h0a10.84,10.84,0,0,0,4.37-.92,11,11,0,0,0,3.55.89l34.18,2.61c.28,0,.55,0,.83,0a10.78,10.78,0,0,0,7.18-2.74L594,272.7a10.35,10.35,0,0,0,1.39-1.5v9.11a10.78,10.78,0,0,0,10,10.76l38,2.85.81,0a10.79,10.79,0,0,0,6.91-2.51,10.74,10.74,0,0,0,6.17,2.48l25.44,1.78.76,0a10.75,10.75,0,0,0,5.66-1.63v0l.26-.18.82-.59,12.93-9.27a10.8,10.8,0,0,0,3.36-2.41l.09-.06h0a10.87,10.87,0,0,0,1.26-1.59l6.55-10.28a11.19,11.19,0,0,0,1.51-3.9h0l11.9-7a10.81,10.81,0,0,0,3.38-2l.41.08-.25-.23a11,11,0,0,0,3.67-8.19v-36.1A11,11,0,0,0,731.9,204.75ZM113.77,126.57l9.74,6.37-11.7,14.88-8.42-6.18ZM53,149.56l7.52,4.81-5.76,9.27-6.22-5.41Zm-34.4,50.16,3.84-47,27.21-8.22-7.15,26.31-2.07,88.88L36,271.16H23.2l1.12-53.44-5.74,13.93Zm75.11,68.49L76.89,253.4,64.14,269.73H42.64L68.2,240.5l-25.56,2V225.92L65.44,224v-4.38l-16.92,1.19v-13l18.65-3.41v-4l-21.11,3.35V189.6l8.45-2v-5.1l-8.45,2.71v-17l15.21-4.54V144.5l17.29-7V155l2.31,3.42,2.86-6V135.76l18.56-5.18-.56,22.07,19.36-6v20.47l-22.54,5.18-.08,4.38,7.09-1.12-3.27,18.8-12.74,1.35-.32,4.07L98,199l-2.07,15.93-8.44.56-.8,4.7,14.9-1.84,1,18.16-13.86.56,34.81,28.51Zm45.4-33H123.56l2.15-13.62,9.56-6s.47-.88.47-11.39-5.33-17.6-11-17.6-12.42,7.72-12.42,18.07,2.86,13.78,2.86,13.78l5-21.66,5.66,7.41-5.34,31.22c-7.65-1.52-17.28-7.65-17.28-30S119,173.67,119,173.67l24.45-2.86-7.33,8.08s8.44,12.86,8.44,27.76S139.09,235.16,139.09,235.16Zm477.82,12.43,29.44,3,4-4.79,17.75,1.87v12.15l-11,12.5-40.18-2.8Zm54.79,5.85,15.18.23,3.86-2.69V209.86l14.37,5.73v48.24l-6.55,10.28-26.86-1.75ZM659,229.61l-37-6.08V210.1l22.78,5.49,4.09-3,17.52,4.32Zm-39.13-42.88,14.49-5.95,29.9,9.46v7l-20.33-5-10.16,7.48L619.83,194Zm-12-12.49,7.36,2.45v22.89l-7.36-1.16Zm-11.33-3.51,7.71,3.51v23.24l-7.71-1.75Zm-49-14.25,38.79,10.75v28.62l-31.43-6-7.36-12.38Zm-9.11,44.39,51.75,9.34,6-9.46,21,4.32-9.93,24.18-11.33-2.45.59,27.34-15.3,12.73-36.1-2.57,6.66-22.78h16.12l5.37-4.67V223.76L538.41,219Zm-80.6-54.79,18.69,4.33v-12.5l23.95,6.54v11l24.88,6.07,10.51,13.2v89.6l-27.45-.12,2-90.06c-.59-3.74-9.7-6.19-9.7-6.19v67l-22,26.52-50-4.09L434.33,230l33.88,2.33,8.41-10.86V162.32l-18.81-4.09ZM351.16,106.25l87.61,22.9,15.89,15.53v65.65l-28.16-4.67,1.87-60.86-9.46-9.35-67.75-16.93Zm31.77,117.16,4.09-6.19.23-72.89,27.34,6.31v88.78l-11.33,18.34L351,254.84V221.08Zm-34.37-66.7v37.67l-17.92,3L317.5,184.58V163.64Zm-110.95-4.54,11.15-18.32,62.52-13.54,22,12.19v22.22l-21.67,4.93v28.76l15.93,14.09,5.81.08.08,31.15-17.36,22.93-61.33,2.95-17.12-17Zm-4.38,26.36-.16,31.86-16.33,2.23-13.22-12.11.32-18.47Zm-39.67,26.61a11.07,11.07,0,0,0,2.53,3.49l13.13,12-15.64,1.24ZM148.65,247.5V150.65l22.7-6.29v21.19L193,161.41,199.54,148l23.57-6.3-11.86,33.46-38.79,7.32.08,52.17,50-4,5.09,29.23-63.39,4.06ZM702.3,206.83l-32.47-7.6v-8.06l44.5,11.33,9.7,9.93v36.1l-15.3-2.34V213.13Z" transform="translate(-7.58 16.26)"/><path class="cls-3" d="M577.51,89.83,347.59,3.54V92.67l229.92,57.69Z" transform="translate(-7.58 16.26)"/><path class="cls-3" d="M140,76.45,347.59,3.54V92.67L140,141Z" transform="translate(-7.58 16.26)"/><path class="cls-5" d="M162.43,74.87l5.76,13.95,6.41-18.18,12.76-4.51v59.28l-8.63,2.08.15-23.52c0-2.09-.35-3.31-.95-3.37l-1.33.32c-1.06.26-1.64,1.19-1.85,3.28v24.24l-11.9,2.86V108.2q0-4-2.15-3.46c-1.39.34-2.09,1.8-2.09,4.4v23.18l-10.35,2.48V79.75Z" transform="translate(-7.58 16.26)"/><path class="cls-5" d="M190.64,89.15V65.1l11-3.78V87.38a22,22,0,0,0,.51,5.27c.34,1.33,3,1,3.38-.65a23.43,23.43,0,0,0,.61-5.7V59.74l11-3.78v29.6a31.73,31.73,0,0,1-2,9.12,39.84,39.84,0,0,1-4.76,8.74l-1,1.27v15.42l-10.92,2.63V107.32l-1-.79a19.89,19.89,0,0,1-4.62-6.16,28.17,28.17,0,0,1-2.17-8.43Z" transform="translate(-7.58 16.26)"/><path class="cls-5" d="M227.33,115.79V52.4l11.64-4V73.55l4.73-1.14V46.72l11.63-4v66.32l-11.63,2.8V87.29L239,88.43V113Z" transform="translate(-7.58 16.26)"/><path class="cls-5" d="M258.43,94.44V52.2q.36-6.36,2.12-9.22a8.17,8.17,0,0,1,2.23-2.5A9.21,9.21,0,0,1,266.1,39L282,33.51V50l-11.66,2.8V64.32l11.6-2.79V76.8l-11.6,2.79V90.27l11.54-2.78v15.17l-15.51,3.73Q258.44,108.31,258.43,94.44Z" transform="translate(-7.58 16.26)"/><path class="cls-5" d="M284.52,102V32.62l20.23-6.9q8.6-2.05,8.59,9.68v12l-.12,2.45A18.52,18.52,0,0,1,311.64,57a11.69,11.69,0,0,1-4.21,4.29l-1,.25,1,0a5.36,5.36,0,0,1,4.66,2.65q1.44,2.46,1.44,7.75V86.9a30.12,30.12,0,0,0,.18,3.82,14.17,14.17,0,0,0,1,3.23l.37.78-12.9,3.08a19.16,19.16,0,0,1-1.24-5.68V75.36q-.35-3.19-2.61-2.65l-1.77.42v26Zm13.35-45a3.21,3.21,0,0,0,2.43-2.36,29.09,29.09,0,0,0,.61-7.42c0-2.38-1.07-3.31-3.23-2.8l-1.15.28V57.32Z" transform="translate(-7.58 16.26)"/><path class="cls-5" d="M315.1,67.13V48.48l.06-3.07q0-13.35,2-18.75a13.22,13.22,0,0,1,7.67-8l2.08-.72,5.95-2,2-.49a6.43,6.43,0,0,1,3.68.22,7.38,7.38,0,0,1,2.75,1.94c1.31,1.57,2.29,6.4,2.95,11.23l.3,4.11.06,9.57v21.8a62.87,62.87,0,0,1-.76,11.32,30.6,30.6,0,0,1-2.85,8,17,17,0,0,1-4.11,5.22,22.43,22.43,0,0,1-7,2.44l-3.12.63c-3.4.69-6.18-.73-8.37-4.26s-3.28-9.17-3.28-16.91Zm14.83,8a2.52,2.52,0,0,0,1.72-1.77,14.7,14.7,0,0,0,.61-5V36.89q0-4.28-1.59-4.66l-.49.1-.37.08c-1.51.3-2.27,2.15-2.27,5.53V69.36a14.19,14.19,0,0,0,.55,4.71A1.51,1.51,0,0,0,329.93,75.16Z" transform="translate(-7.58 16.26)"/><path class="cls-5" d="M507.33,72l5.6,19,6.87-14.28,12.38,4.63v54L522.7,133l.15-23c0-2-.35-3.41-.94-3.76l-1.33-.34c-1.06-.26-1.63.37-1.84,2.31V132l-11-2.77V106.53q0-3.9-2.14-4.44t-2.08,3.3v22.73l-10.31-2.6V66.79Z" transform="translate(-7.58 16.26)"/><path class="cls-5" d="M352.54,90.09V25.34a27.86,27.86,0,0,1,.31-5.11,5,5,0,0,1,1.24-2.64,3.47,3.47,0,0,1,4-1.54l18,6.76a6.58,6.58,0,0,1,4.08,3.57,12.28,12.28,0,0,1,1.11,3.33l.25,1.9V97.42l-12.08-3.06V78.29l-4.81-1.22V93.14Zm16.89-29.5V41.47c0-3.26-.78-5.08-2.34-5.48s-2.47,1-2.47,4.26V59.37Z" transform="translate(-7.58 16.26)"/><path class="cls-5" d="M384.55,85.16V40l.2-3.05c.39-3.46,1.23-5.78,2.5-7s3.11-1.5,5.52-.89l11,4.16V52.66l-3.64-.92c-1.1-.27-1.84.31-2.24,1.77l-.13,1.13V81.41l.07.79c.22,1.8,1,2.86,2.23,3.18l3.65.92V103l-10.94-2.76a8.84,8.84,0,0,1-5.46-3.6c-1.18-1.79-2-4.55-2.56-8.31Z" transform="translate(-7.58 16.26)"/><path class="cls-5" d="M407.83,103.94V47a50.41,50.41,0,0,1,.31-6.57A4.19,4.19,0,0,1,409.37,38a3.56,3.56,0,0,1,3.95-1.3L429,42.67A6.7,6.7,0,0,1,433.11,46a10.77,10.77,0,0,1,1.11,3.07l.25,1.73v59.92l-9.79-2.49V93.61l-4.79-1.23V107Zm16.85-24.67V60.08c0-3-.77-4.64-2.33-5s-2.46.85-2.46,3.81V78Z" transform="translate(-7.58 16.26)"/><path class="cls-5" d="M439.34,112V46.51l19.54,7.29q2.82.72,4.4,4.18t1.57,9.68v38.45q0,6.66-1,8.94c-.83,1.83-2.46,2.45-4.89,1.84Zm12.59-11q1.31.33,1.77-.57a11,11,0,0,0,.46-4v-25q0-4.9-2.28-5.47l-1.9-.48v35Z" transform="translate(-7.58 16.26)"/><path class="cls-5" d="M468.42,107.22V68.37c.22-3.61.85-6,1.9-7.17a3.6,3.6,0,0,1,2-1.23,6.52,6.52,0,0,1,3,.15l14.29,5.3V79.2l-10.49-2.58V86.73l10.44,2.56v13.4l-10.44-2.57v8.58l10.38,2.55v13.32l-13.95-3.43Q468.43,119.39,468.42,107.22Z" transform="translate(-7.58 16.26)"/><path class="cls-5" d="M534.5,135.92V82.24l10.65,4v52.37Z" transform="translate(-7.58 16.26)"/><path class="cls-5" d="M549.22,139.62v-44a18,18,0,0,1,.22-3.52,3.17,3.17,0,0,1,.91-1.8,2.58,2.58,0,0,1,2.89-1l13.22,4.95a4.86,4.86,0,0,1,3,2.5,8.26,8.26,0,0,1,.81,2.31l.18,1.31V145l-8.85-2.23V131.65l-3.52-.89v11.09Zm12.37-18.7V106.25c0-2.24-.57-3.51-1.71-3.8s-1.81.67-1.81,2.91V120Z" transform="translate(-7.58 16.26)"/></g></svg>