<svg id="Layer_4" data-name="Layer 4" xmlns="http://www.w3.org/2000/svg" viewBox="0 0 727.44 292.18"><defs><style>.cls-1{fill:none;}.cls-2{fill:#f5eb26;}.cls-3{fill:#e42127;}.cls-4{fill:#fff;}</style></defs><path class="cls-1" d="M201.64,217.1l-13.13-12A11.11,11.11,0,0,1,186,201.6l0,16.75Z"/><polygon class="cls-1" points="271.89 158.86 271.5 209.16 280.33 209.1 281.79 207.25 281.79 154.76 273.86 156.34 271.89 158.86"/><polygon class="cls-2" points="95.8 138.1 104.22 144.27 115.92 129.39 106.19 123.03 95.8 138.1"/><polygon class="cls-2" points="28.36 267.62 32.82 256.15 34.89 167.26 42.04 140.96 14.84 149.18 11 196.17 11 228.11 16.73 214.17 15.62 267.62 28.36 267.62"/><polygon class="cls-2" points="195.94 196.97 209.16 209.08 225.49 206.85 225.65 174.99 196.26 178.49 195.94 196.97"/><path class="cls-2" d="M115.89,262l-34.8-28.51L95,233l-1-18.16L79.1,216.64l.79-4.7,8.45-.55,2.07-15.93-8.76.79.31-4.06,12.75-1.35L98,172l-7.09,1.12.08-4.39,22.54-5.17V143.13l-19.35,6L94.71,127l-18.56,5.18v16.64l-2.87,6L71,151.41V134l-17.28,7V160.1l-15.21,4.53v17.05L46.93,179v5.1l-8.45,2v14.17l21.1-3.34v4l-18.64,3.42v13l16.92-1.2v4.38l-22.81,1.92v16.56l25.57-2L35.05,266.18H56.56L69.3,249.85l16.81,14.82ZM75.47,176.82l-6,1.91-3.66-4.46L77.66,172Z"/><path class="cls-2" d="M320,199,304,184.86V156.11l21.66-4.94V129l-22-12.18-62.52,13.54L230,148.62V239l17.12,17,61.33-2.95,17.36-22.94L325.76,199Zm-64.28-52.09,7.09-8.6,21.5-4.06,8.53,6.85v70l-7.09,9-22.86.16-7.73-6.53Z"/><polygon class="cls-2" points="40.94 154.69 47.15 160.1 52.91 150.83 45.4 146.02 40.94 154.69"/><polygon class="cls-2" points="156.67 260.37 220.07 256.31 214.97 227.08 164.96 231.06 164.88 178.89 203.66 171.56 215.53 138.11 191.96 144.4 185.42 157.86 163.76 162 163.76 140.82 141.06 147.11 141.06 243.96 156.67 260.37"/><path class="cls-2" d="M118.28,200.63l-5.65-7.4-5,21.66s-2.87-3.43-2.87-13.78S111.51,183,117.17,183s11,7.09,11,17.6-.48,11.39-.48,11.39l-9.56,6L116,231.62H131.5S137,218,137,203.1s-8.44-27.75-8.44-27.75l7.32-8.09-24.45,2.87s-15.77,9.32-15.77,31.7,9.64,28.51,17.29,30Z"/><polygon class="cls-2" points="309.91 160.09 309.91 181.04 323.05 193.86 340.97 190.84 340.97 153.16 309.91 160.09"/><polygon class="cls-2" points="600.22 194.87 607.57 196.04 607.57 173.15 600.22 170.69 600.22 194.87"/><polygon class="cls-2" points="662.24 187.63 662.24 195.69 694.72 203.28 701.14 209.59 701.14 242.65 716.45 244.99 716.45 208.89 706.75 198.96 662.24 187.63"/><polygon class="cls-2" points="656.64 186.69 626.73 177.23 612.25 183.19 612.25 190.43 626.15 196.16 636.31 188.68 656.64 193.7 656.64 186.69"/><polygon class="cls-2" points="588.88 192.19 596.59 193.94 596.59 170.69 588.88 167.19 588.88 192.19"/><polygon class="cls-2" points="395.67 254.21 407 235.87 407 147.09 379.67 140.79 379.44 213.68 375.35 219.87 343.46 217.53 343.46 251.29 395.67 254.21"/><polygon class="cls-2" points="588.88 250.59 588.3 223.26 599.63 225.71 609.56 201.53 588.53 197.21 582.58 206.67 530.83 197.32 530.83 215.43 565.64 220.22 565.64 233.3 560.26 237.98 544.14 237.98 537.49 260.75 573.58 263.32 588.88 250.59"/><polygon class="cls-2" points="614.35 219.99 651.38 226.06 658.74 213.33 641.22 209.01 637.13 212.04 614.35 206.55 614.35 219.99"/><polygon class="cls-2" points="411.33 131.91 420.79 141.25 418.92 202.12 447.07 206.79 447.07 141.14 431.19 125.6 343.57 102.71 343.57 114.97 411.33 131.91"/><polygon class="cls-2" points="539.94 152.94 539.94 173.96 547.3 186.34 578.72 192.3 578.72 163.68 539.94 152.94"/><polygon class="cls-2" points="697.52 260.29 697.52 212.04 683.15 206.32 683.15 247.44 679.3 250.13 664.11 249.89 664.11 268.81 690.98 270.57 697.52 260.29"/><polygon class="cls-2" points="660.49 256.32 660.49 244.17 642.74 242.3 638.76 247.09 609.33 244.05 609.33 266.01 649.51 268.81 660.49 256.32"/><path class="cls-2" d="M528.26,171.16,517.74,158l-24.88-6.08v-11l-23.94-6.54v12.5l-18.69-4.32v12.15l18.8,4.09v59.1l-8.41,10.87-33.87-2.34-5.61,27.45,50,4.09,22-26.52V164.38s9.11,2.46,9.69,6.19l-2,90.07,27.45.12Z"/><polygon points="69.46 178.73 75.47 176.82 77.66 171.96 65.8 174.27 69.46 178.73"/><path d="M285.7,220.07l7.09-9v-70l-8.53-6.85-21.5,4.06-7.09,8.6-.56,66.83,7.73,6.53Zm-3.91-12.82-1.46,1.85-8.83.07.39-50.31,2-2.52,7.93-1.58Z"/><path d="M724.31,201.2l-9.69-9.92a11,11,0,0,0-5.16-3L665,177a11,11,0,0,0-2.72-.34c-.35,0-.7,0-1,.05a10.22,10.22,0,0,0-1.24-.47l-29.9-9.46a10.76,10.76,0,0,0-3.32-.52,11,11,0,0,0-4.18.83l-4.78,2a11,11,0,0,0-6.72-6.31l-7.36-2.45a10.92,10.92,0,0,0-3.47-.57,10.37,10.37,0,0,0-1.12.06l-5.66-2.58a11,11,0,0,0-4.56-1,11.67,11.67,0,0,0-2,.17,11,11,0,0,0-5.27-3.28l-38.78-10.74A11,11,0,0,0,529,151.83a10.86,10.86,0,0,0-1.5.72l-1.15-1.44a11,11,0,0,0-6-3.84l-16.49-4V140.9a11,11,0,0,0-8.1-10.61l-23.95-6.54a11,11,0,0,0-13.82,9.3L453.46,132l-14.58-14.26A11,11,0,0,0,434,115l-87.61-22.9a11,11,0,0,0-13.79,10.65V115a11,11,0,0,0,3.52,8.06v.31a10.8,10.8,0,0,0,8,10.42l24.61,6.59c0,.14,0,.27,0,.4l-.22,67.59-19.13-1.41a11.24,11.24,0,0,0,3.38-8.09V161.16a11.33,11.33,0,0,0-.73-4v-4a11,11,0,0,0-11-11,10.75,10.75,0,0,0-2.39.27l-.36.08V137a11.48,11.48,0,0,0-1.54-5.73V129a11,11,0,0,0-5.67-9.62l-22-12.18a11,11,0,0,0-7.66-1.13l-62.52,13.54a11,11,0,0,0-7.07,5l-5.92,9.73a11,11,0,0,0-10.33-7.21,11.07,11.07,0,0,0-2.84.37l-23.57,6.3a11,11,0,0,0-7.06,5.82l-.55,1.12c-.23-.22-.47-.45-.73-.66a10.05,10.05,0,0,0-6.3-2.24h-.15a11,11,0,0,0-13.51-7.61l-21.31,5.91c0-.18,0-.35,0-.52a11.07,11.07,0,0,0-4.58-7.42l-9.22-6.37a10.2,10.2,0,0,0-3.63-1.57l-.09-.06-9.73-6.37a11,11,0,0,0-14.78,2.56,10.82,10.82,0,0,0-2.56-.34h-.54a10.94,10.94,0,0,0-2.82.46l-18.32,5.11a11.24,11.24,0,0,0-3,1.38,11.18,11.18,0,0,0-3.29.77l-17.28,7a10.08,10.08,0,0,0-1.7.87A11,11,0,0,0,42.35,130H42l-.6,0a10.91,10.91,0,0,0-2.82.52l-27,8.15a11,11,0,0,0-7.78,9.63L0,195.28a8.83,8.83,0,0,0,0,.89v31.94a11,11,0,0,0,5.25,9.38l-.63,29.9a11,11,0,0,0,3.14,7.92A12.06,12.06,0,0,0,9,276.41H9l.08,0a11,11,0,0,0,2.49,1.38l.06,0,18,7.63a9.74,9.74,0,0,0,1.5.63h0a9.83,9.83,0,0,0,3.05.49H46.27a9.93,9.93,0,0,0,5.24-1.5,10,10,0,0,0,1.1.06H73A10.22,10.22,0,0,0,81.18,281l3.94-5.33c.32,0,.65.05,1,.05s.64,0,1,0l1.19-.11,5.8,5.4a10.09,10.09,0,0,0,6.89,2.75c.3,0,.61,0,.91,0L130.07,281a10.58,10.58,0,0,0,9-7.72,11.38,11.38,0,0,0-3.35-11.75l-13-11.27c.53.14,1.07.27,1.61.39a9.88,9.88,0,0,0,2,.2,10,10,0,0,0,2.25-.25l.62,0h3.08a11.48,11.48,0,0,0,.78.92L148.7,268a10.94,10.94,0,0,0,1.85,1.55h0l11.25,7.87.16.12.36.25v0a10,10,0,0,0,5.46,1.65q.33,0,.66,0l60-4.06a10.24,10.24,0,0,0,7.52-4.17,11.37,11.37,0,0,0,2.21-7.55l7.9,8.3a10.14,10.14,0,0,0,7.35,3.21l.5,0L312,272.11a10.3,10.3,0,0,0,7.81-4.35l11.71-16.35,4.77,13a10.82,10.82,0,0,0,.85,2.31v0h0a10.78,10.78,0,0,0,9,5.87l49.46,3c.21,0,.43,0,.64,0a10.79,10.79,0,0,0,9.35-5.4l4.06-7.05a10.8,10.8,0,0,0,9.77,12.05l47.35,4.16c.32,0,.63,0,.95,0a10.78,10.78,0,0,0,8.53-4.2l8.93-11.56-.15,7.48a10.79,10.79,0,0,0,10.74,11l26,.12h0a10.76,10.76,0,0,0,4.38-.93,10.92,10.92,0,0,0,3.54.9l34.19,2.61c.27,0,.55,0,.82,0a10.82,10.82,0,0,0,7.19-2.74l14.49-12.94a10.86,10.86,0,0,0,1.39-1.49v9.11a10.79,10.79,0,0,0,10,10.76l38.06,2.84.81,0a10.78,10.78,0,0,0,6.91-2.5,10.78,10.78,0,0,0,6.16,2.48l25.45,1.78c.25,0,.5,0,.75,0a10.78,10.78,0,0,0,5.67-1.62v0l.25-.19.82-.58,12.94-9.27a11,11,0,0,0,3.36-2.41l.08-.06h0a11.52,11.52,0,0,0,1.26-1.6l6.54-10.28a10.77,10.77,0,0,0,1.51-3.89l0,0v0l11.91-7a11,11,0,0,0,3.37-2l.41.08-.25-.23a11,11,0,0,0,3.67-8.19v-36.1A11,11,0,0,0,724.31,201.2ZM106.19,123l9.73,6.36-11.7,14.88L95.8,138.1ZM45.4,146l7.51,4.81-5.76,9.27-6.21-5.41ZM11,196.17l3.84-47L42,141l-7.15,26.3-2.07,88.89-4.46,11.47H15.62l1.11-53.45L11,228.11Zm75.11,68.5L69.3,249.85,56.56,266.18H35.05L60.62,237l-25.57,2V222.38l22.81-1.92v-4.38l-16.92,1.2v-13l18.64-3.42v-4l-21.1,3.34V186.06l8.45-2V179l-8.45,2.71V164.63l15.21-4.53V141L71,134v17.44l2.31,3.43,2.87-6V132.22L94.71,127l-.56,22.06,19.35-6V163.6L91,168.77l-.08,4.39L98,172l-3.26,18.8L82,192.19l-.31,4.06,8.76-.79-2.07,15.93-8.45.55-.79,4.7L94,214.81,95,233l-13.86.56L115.89,262Zm45.39-33.05H116L118.12,218l9.56-6s.48-.87.48-11.39-5.34-17.6-11-17.6-12.43,7.73-12.43,18.08,2.87,13.78,2.87,13.78l5-21.66,5.65,7.4L113,231.85c-7.65-1.51-17.29-7.64-17.29-30s15.77-31.7,15.77-31.7l24.45-2.87-7.32,8.09S137,188.21,137,203.1,131.5,231.62,131.5,231.62Zm477.83,12.43,29.43,3,4-4.79,17.76,1.87v12.15l-11,12.5L609.33,266Zm54.78,5.84,15.19.23,3.85-2.68V206.32L697.52,212v48.25L691,270.57l-26.87-1.75Zm-12.73-23.83-37-6.07V206.55L637.13,212l4.09-3,17.52,4.32Zm-39.13-42.87,14.48-6,29.91,9.47v7l-20.33-5-10.16,7.48-13.9-5.73Zm-12-12.5,7.36,2.45V196l-7.36-1.17Zm-11.33-3.5,7.71,3.5v23.25l-7.71-1.75Zm-48.94-14.25,38.78,10.74V192.3l-31.42-6L539.94,174Zm-9.11,44.39,51.75,9.34,5.95-9.46,21,4.32-9.93,24.18-11.33-2.45.58,27.33-15.3,12.74-36.09-2.57L544.14,238h16.12l5.38-4.68V220.22l-34.81-4.79Zm-80.6-54.79,18.69,4.32v-12.5l23.94,6.54v11L517.74,158l10.52,13.2v89.6l-27.45-.12,2-90.07c-.58-3.73-9.69-6.19-9.69-6.19v67.05l-22,26.52-50-4.09,5.61-27.45,33.87,2.34L469,217.88v-59.1l-18.8-4.09ZM343.57,102.71l87.62,22.89,15.88,15.54v65.65l-28.15-4.68,1.87-60.86-9.46-9.34L343.57,115Zm31.78,117.16,4.09-6.19.23-72.89L407,147.1v88.77l-11.33,18.34-52.21-2.92V217.53ZM341,153.16v37.68l-17.92,3L309.91,181V160.09ZM230,148.62l11.15-18.31,62.52-13.54,22,12.18v22.22L304,156.11v28.75L320,199l5.81.08.08,31.14-17.36,22.94-61.33,2.95L230,239ZM225.65,175l-.16,31.86-16.33,2.23L195.94,197l.32-18.48ZM186,201.6a11.11,11.11,0,0,0,2.54,3.48l13.13,12L186,218.35ZM141.06,244V147.11l22.7-6.29V162l21.66-4.14L192,144.4l23.57-6.29-11.87,33.45-38.78,7.33.08,52.17,50-4,5.1,29.23-63.4,4.06Zm553.66-40.68-32.48-7.59v-8.06L706.75,199l9.69,9.93V245l-15.3-2.34V209.59Z"/><path class="cls-3" d="M569.93,86.29,340,0V89.13l229.93,57.69Z"/><path class="cls-3" d="M132.41,72.91,340,0V89.13L132.41,137.47Z"/><path class="cls-4" d="M154.85,71.33l5.75,13.94L167,67.1l12.76-4.52v59.29l-8.64,2.07.16-23.52c0-2.08-.35-3.3-1-3.36l-1.33.32c-1.06.25-1.64,1.18-1.85,3.27V124.9l-11.91,2.86v-23.1c0-2.65-.71-3.81-2.14-3.46S151,103,151,105.6v23.17l-10.35,2.49v-55Z"/><path class="cls-4" d="M183.06,85.6v-24l11-3.79V83.84a22,22,0,0,0,.51,5.27c.33,1.33,3,1,3.37-.65a23.42,23.42,0,0,0,.62-5.71V56.19l11-3.77V82a31.92,31.92,0,0,1-2,9.12,39,39,0,0,1-4.77,8.74l-1,1.28v15.42l-10.91,2.63V103.78l-1-.79a19.81,19.81,0,0,1-4.62-6.16,28.17,28.17,0,0,1-2.17-8.43Z"/><path class="cls-4" d="M219.75,112.25V48.86l11.64-4V70l4.72-1.13V43.18l11.64-4v66.33l-11.64,2.8V83.74l-4.72,1.14v24.56Z"/><path class="cls-4" d="M250.85,90.9V48.66c.24-4.24.94-7.32,2.11-9.22a8.36,8.36,0,0,1,2.24-2.51,9.13,9.13,0,0,1,3.32-1.45L274.4,30V46.45l-11.65,2.81V60.78L274.34,58V73.25l-11.59,2.8V86.72L274.28,84V99.12l-15.5,3.73Q250.85,104.76,250.85,90.9Z"/><path class="cls-4" d="M276.94,98.48V29.08l20.23-6.9q8.59-2.05,8.59,9.67v12l-.12,2.46a18.39,18.39,0,0,1-1.59,7.16,11.53,11.53,0,0,1-4.2,4.3l-1,.25,1,0a5.39,5.39,0,0,1,4.66,2.65c.95,1.63,1.43,4.22,1.43,7.75V83.36a30,30,0,0,0,.18,3.81,14.48,14.48,0,0,0,1,3.24l.36.78-12.9,3.08a19.67,19.67,0,0,1-1.23-5.68V71.82q-.36-3.19-2.61-2.66l-1.78.43v26Zm13.34-45a3.25,3.25,0,0,0,2.44-2.36,29.61,29.61,0,0,0,.61-7.43c0-2.37-1.08-3.31-3.23-2.79l-1.16.27V53.78Z"/><path class="cls-4" d="M307.51,63.58V44.93l.07-3.07q0-13.33,2-18.75a13.22,13.22,0,0,1,7.66-8l2.09-.72,5.94-2.05,2-.49a6.34,6.34,0,0,1,3.68.22A7.38,7.38,0,0,1,333.75,14c1.31,1.57,2.29,6.4,2.94,11.22l.31,4.12.06,9.56V60.74a62.49,62.49,0,0,1-.77,11.31,30.66,30.66,0,0,1-2.85,8,16.79,16.79,0,0,1-4.1,5.21,22.27,22.27,0,0,1-7,2.44l-3.13.64q-5.09,1-8.36-4.26t-3.28-16.91Zm14.84,8a2.53,2.53,0,0,0,1.72-1.77,15,15,0,0,0,.61-5V33.34q0-4.26-1.6-4.65l-.49.1-.36.07c-1.52.31-2.27,2.15-2.27,5.53V65.82a13.82,13.82,0,0,0,.55,4.7A1.52,1.52,0,0,0,322.35,71.62Z"/><path class="cls-4" d="M499.75,68.5l5.6,19,6.86-14.27,12.39,4.63v54l-9.49-2.39.16-23c0-2-.35-3.41-.95-3.77l-1.32-.33c-1.06-.27-1.64.36-1.85,2.31V128.4l-11-2.76V103q0-3.9-2.13-4.44t-2.08,3.3v22.72L485.63,122V63.25Z"/><path class="cls-4" d="M345,86.54V21.79a27,27,0,0,1,.31-5.11,4.85,4.85,0,0,1,1.23-2.63,3.48,3.48,0,0,1,3.95-1.55l18,6.76a6.61,6.61,0,0,1,4.07,3.58,12,12,0,0,1,1.12,3.33l.24,1.89V93.87l-12.08-3.05V74.75L357,73.53V89.6ZM361.84,57V37.93c0-3.26-.78-5.08-2.34-5.48s-2.46,1-2.46,4.26V55.83Z"/><path class="cls-4" d="M377,81.62V36.41l.2-3.06q.58-5.18,2.49-7c1.27-1.2,3.11-1.49,5.52-.89l11,4.17V49.12l-3.65-.92c-1.09-.28-1.84.31-2.23,1.76l-.13,1.13V77.87l.06.79c.22,1.8,1,2.86,2.24,3.18l3.64.92V99.43l-10.94-2.75a8.79,8.79,0,0,1-5.45-3.61c-1.18-1.78-2-4.55-2.56-8.3Z"/><path class="cls-4" d="M400.25,100.4v-57a52.59,52.59,0,0,1,.3-6.57,4.27,4.27,0,0,1,1.24-2.37,3.55,3.55,0,0,1,3.94-1.31l15.73,5.94a6.68,6.68,0,0,1,4.07,3.36,10.51,10.51,0,0,1,1.1,3.06l.25,1.73V107.2l-9.78-2.5V90.07l-4.8-1.23v14.64ZM417.1,75.73V56.54q0-4.45-2.34-5c-1.64-.42-2.46.86-2.46,3.82V74.5Z"/><path class="cls-4" d="M431.75,108.42V43l19.55,7.29q2.82.7,4.39,4.17t1.58,9.68v38.46c0,4.44-.35,7.41-1,8.93-.84,1.84-2.46,2.45-4.89,1.84Zm12.6-11c.87.22,1.45,0,1.76-.56a10.8,10.8,0,0,0,.46-4v-25q0-4.9-2.28-5.48l-1.9-.48v35Z"/><path class="cls-4" d="M460.83,103.68V64.83c.22-3.62.85-6,1.91-7.18a3.72,3.72,0,0,1,2-1.23,6.54,6.54,0,0,1,3,.16L482,61.88V75.65l-10.49-2.57v10.1L482,85.75V99.14l-10.43-2.56v8.58l10.38,2.55V121L468,117.6Q460.83,115.85,460.83,103.68Z"/><path class="cls-4" d="M526.92,132.37V78.69l10.65,4v52.37Z"/><path class="cls-4" d="M541.63,136.08v-44a17.71,17.71,0,0,1,.23-3.52,3.29,3.29,0,0,1,.9-1.81,2.59,2.59,0,0,1,2.9-1l13.22,4.94a4.86,4.86,0,0,1,3,2.51,7.75,7.75,0,0,1,.82,2.31l.18,1.31v44.6L554,139.19V128.11l-3.53-.89v11.09ZM554,117.37V102.71c0-2.25-.58-3.51-1.72-3.8s-1.81.66-1.81,2.91v14.67Z"/></svg>